<svg width="11" height="6" viewBox="0 0 11 6" fill="none" xmlns="http://www.w3.org/2000/svg">
  <symbol width="11" height="6" viewBox="0 0 11 6" fill="none" id="arrow-down">
    <path
      d="M10.6236 1.12001C10.624 0.946246 10.5631 0.777845 10.4515 0.644043C10.3887 0.568737 10.3116 0.506487 10.2245 0.460859C10.1374 0.415232 10.0421 0.387122 9.94413 0.378141C9.84612 0.369161 9.74728 0.379485 9.65329 0.408522C9.5593 0.43756 9.47199 0.48474 9.39637 0.547361L5.38526 3.87916L1.36668 0.666354C1.29013 0.604578 1.20205 0.558444 1.10751 0.530606C1.01296 0.502768 0.913813 0.493774 0.81576 0.50414C0.717706 0.514507 0.62268 0.54403 0.536144 0.591013C0.449609 0.637995 0.373269 0.701511 0.311514 0.77791C0.243388 0.854858 0.192001 0.94497 0.160579 1.04259C0.129157 1.14021 0.118378 1.24323 0.128919 1.34519C0.139459 1.44715 0.171091 1.54584 0.22183 1.63507C0.272569 1.7243 0.341319 1.80215 0.423766 1.86372L4.91381 5.45582C5.04771 5.5652 5.21567 5.625 5.38901 5.625C5.56234 5.625 5.7303 5.5652 5.8642 5.45582L10.3542 1.73729C10.4448 1.66268 10.5164 1.56791 10.5632 1.46066C10.61 1.35341 10.6307 1.23671 10.6236 1.12001Z"
      fill="white" />
  </symbol>
  <symbol width="36" height="36" viewBox="0 0 36 36" fill="none" id="logo">
    <path
      d="M0 4C0 1.79086 1.79086 0 4 0H28C30.2091 0 32 1.79086 32 4V8C32 21.2548 21.2548 32 8 32H4C1.79086 32 0 30.2091 0 28V4Z"
      fill="#F59E0B" />
    <path
      d="M4 8C4 5.79086 5.79086 4 8 4H32C34.2091 4 36 5.79086 36 8V12C36 25.2548 25.2548 36 12 36H8C5.79086 36 4 34.2091 4 32V8Z"
      fill="#4BE4C9" />
  </symbol>
  <symbol width="18" height="22" viewBox="0 0 18 22" fill="none" id="gps">
    <path
      d="M9 0C11.3869 0 13.6761 0.993372 15.364 2.76159C17.0518 4.5298 18 6.92801 18 9.42865C18 13.934 15.0975 18.081 9.402 21.8776C9.28181 21.9575 9.14237 22 9 22C8.85763 22 8.71819 21.9575 8.598 21.8776C2.9025 18.081 0 13.934 0 9.42865C0 6.92801 0.948211 4.5298 2.63604 2.76159C4.32387 0.993372 6.61305 0 9 0ZM9 6.28576C8.20435 6.28576 7.44129 6.61689 6.87868 7.20629C6.31607 7.7957 6 8.5951 6 9.42865C6 10.2622 6.31607 11.0616 6.87868 11.651C7.44129 12.2404 8.20435 12.5715 9 12.5715C9.79565 12.5715 10.5587 12.2404 11.1213 11.651C11.6839 11.0616 12 10.2622 12 9.42865C12 8.5951 11.6839 7.7957 11.1213 7.20629C10.5587 6.61689 9.79565 6.28576 9 6.28576Z"
      fill="#F59E0B" />
  </symbol>
  <symbol width="7" height="14" viewBox="0 0 7 14" fill="none" id="arrow-left">
    <path
      d="M0.993352 0.00180435C0.761661 0.00134945 0.537126 0.0825443 0.358724 0.231296C0.258315 0.315059 0.175316 0.417933 0.114479 0.534022C0.0536416 0.650112 0.0161625 0.777137 0.00418798 0.907824C-0.00778654 1.03851 0.00597897 1.17029 0.0446958 1.29562C0.0834126 1.42094 0.146319 1.53735 0.229814 1.63818L4.67221 6.98632L0.388472 12.3444C0.306104 12.4465 0.244592 12.5639 0.207475 12.69C0.170357 12.8161 0.158365 12.9482 0.172187 13.079C0.186009 13.2097 0.225373 13.3364 0.288017 13.4518C0.35066 13.5672 0.435349 13.669 0.537213 13.7513C0.639811 13.8421 0.75996 13.9107 0.89012 13.9526C1.02028 13.9945 1.15764 14.0088 1.29359 13.9948C1.42953 13.9807 1.56112 13.9385 1.68009 13.8709C1.79907 13.8032 1.90286 13.7116 1.98496 13.6016L6.77442 7.61492C6.92027 7.43638 7 7.21244 7 6.98133C7 6.75021 6.92027 6.52627 6.77442 6.34773L1.81639 0.361009C1.71691 0.240259 1.59055 0.144807 1.44755 0.0823965C1.30455 0.0199862 1.14894 -0.00762463 0.993352 0.00180435Z"
      fill="white" />
  </symbol>
  <symbol width="9" height="18" viewBox="0 0 9 18" fill="none" id="arrow-right">
    <path
      d="M7.50759 17.1646C7.7779 17.1651 8.03986 17.0704 8.24799 16.8969C8.36514 16.7991 8.46197 16.6791 8.53295 16.5437C8.60392 16.4082 8.64765 16.2601 8.66162 16.1076C8.67559 15.9551 8.65953 15.8014 8.61436 15.6552C8.56919 15.5089 8.4958 15.3731 8.39839 15.2555L3.21559 9.01601L8.21329 2.76487C8.30938 2.6458 8.38115 2.50879 8.42445 2.36172C8.46775 2.21465 8.48174 2.06042 8.46562 1.90789C8.44949 1.75536 8.40357 1.60754 8.33048 1.47293C8.2574 1.33832 8.1586 1.21957 8.03976 1.12351C7.92006 1.01753 7.77988 0.937598 7.62803 0.88872C7.47618 0.839841 7.31592 0.823074 7.15732 0.83947C6.99872 0.855866 6.8452 0.905071 6.7064 0.983998C6.56759 1.06293 6.4465 1.16987 6.35072 1.29812L0.763011 8.28263C0.592855 8.49093 0.499836 8.7522 0.499836 9.02183C0.499836 9.29146 0.592855 9.55273 0.763011 9.76102L6.54739 16.7455C6.66344 16.8864 6.81087 16.9978 6.9777 17.0706C7.14453 17.1434 7.32607 17.1756 7.50759 17.1646Z"
      fill="#3C4563" />
  </symbol>
  <symbol width="18" height="19" viewBox="0 0 18 19" fill="none" id="house">
    <path
      d="M18.0001 8.83189V17.5C17.9999 17.7719 17.9263 18.0386 17.7869 18.272C17.6475 18.5054 17.4477 18.6968 17.2085 18.8259C16.9917 18.9432 16.7486 19.0031 16.5022 18.9999H11.9968C11.7979 18.9999 11.6071 18.9209 11.4665 18.7803C11.3258 18.6396 11.2468 18.4488 11.2468 18.2499V13.7493C11.2468 13.5504 11.1678 13.3596 11.0271 13.2189C10.8865 13.0783 10.6957 12.9993 10.4968 12.9993H7.49682C7.29791 12.9993 7.10714 13.0783 6.96649 13.2189C6.82584 13.3596 6.74682 13.5504 6.74682 13.7493V18.2499C6.74682 18.4488 6.6678 18.6396 6.52715 18.7803C6.3865 18.9209 6.19573 18.9999 5.99682 18.9999H1.50029C1.28764 19.0005 1.07732 18.9556 0.883446 18.8682C0.689567 18.7808 0.516599 18.653 0.376132 18.4934C0.129551 18.2082 -0.00419596 17.8427 0.000100382 17.4657V8.8318C0.000263818 8.62281 0.0440112 8.41615 0.128549 8.22503C0.213086 8.0339 0.336555 7.86251 0.491069 7.7218L7.99041 0.903078C8.26588 0.650753 8.62589 0.510777 8.99945 0.510742C9.37302 0.510707 9.73305 0.650617 10.0086 0.90289L17.5092 7.72189C17.6637 7.86263 17.7871 8.03403 17.8717 8.22515C17.9562 8.41627 17.9999 8.62292 18.0001 8.83189Z"
      fill="#10B981" />
  </symbol>
  <symbol width="18" height="18" viewBox="0 0 18 18" fill="none" id="villa">
    <path
      d="M4 18.0001H1C0.45 18.0001 0 17.5501 0 17.0001V5.69006C0 5.27006 0.25 4.90006 0.64 4.75006L11.64 0.52006C11.7921 0.461382 11.9561 0.440759 12.118 0.459986C12.2798 0.479212 12.4345 0.537706 12.5686 0.630376C12.7027 0.723045 12.8121 0.847081 12.8873 0.991686C12.9624 1.13629 13.0012 1.29708 13 1.46006V7.00006H5C4.45 7.00006 4 7.45006 4 8.00006V18.0001ZM14 9.00006H7C6.45 9.00006 6 9.45006 6 10.0001V17.0001C6 17.5501 6.45 18.0001 7 18.0001H11V14.0001C11 13.4501 11.45 13.0001 12 13.0001C12.55 13.0001 13 13.4501 13 14.0001V18.0001H17C17.55 18.0001 18 17.5501 18 17.0001V9.00006C18 7.90006 17.1 7.00006 16 7.00006C14.9 7.00006 14 7.90006 14 9.00006Z"
      fill="#888B97" />
  </symbol>
  <symbol width="18" height="18" viewBox="0 0 18 18" fill="none" id="apartament">
    <path
      d="M14 8V2C14 0.9 13.1 0 12 0H6C4.9 0 4 0.9 4 2V4H2C0.9 4 0 4.9 0 6V16C0 17.1 0.9 18 2 18H8V14H10V18H16C17.1 18 18 17.1 18 16V10C18 8.9 17.1 8 16 8H14ZM4 16H2V14H4V16ZM4 12H2V10H4V12ZM4 8H2V6H4V8ZM8 12H6V10H8V12ZM8 8H6V6H8V8ZM8 4H6V2H8V4ZM12 12H10V10H12V12ZM12 8H10V6H12V8ZM12 4H10V2H12V4ZM16 16H14V14H16V16ZM16 12H14V10H16V12Z"
      fill="#888B97" />
  </symbol>
  <symbol width="24" height="16" viewBox="0 0 24 16" fill="none" id="bed">
    <path
      d="M19.8 6.76923C22.0713 6.76923 24 8.66184 24 11.0769V14.7692H22.2V16H21V14.7692H3V16H1.8V14.7692H0V11.0769C0 8.74741 1.86341 6.76923 4.2 6.76923H19.8ZM18.6 0C20.2133 0 21.6004 1.33021 21.6 3.07692L21.6004 6.01703C21.0548 5.71017 20.4443 5.53846 19.8 5.53846L18.6 5.53784C18.6 4.48392 17.7586 3.69231 16.8 3.69231H13.2C12.739 3.69231 12.3185 3.87004 12.0001 4.16234C11.682 3.87026 11.2613 3.69231 10.8 3.69231H7.2C6.20609 3.69231 5.40033 4.51853 5.4 5.53784L4.2 5.53846C3.55587 5.53846 2.9456 5.71006 2.4 6.01675V3.07692C2.4 1.4223 3.69394 0 5.4 0H18.6ZM10.8 4.92277C11.1256 4.92277 11.4 5.23046 11.4 5.53846L6.6 5.53784C6.6 5.16134 6.8923 4.92308 7.2 4.92308L10.8 4.92277ZM16.8 4.92722C17.1395 4.92277 17.3997 5.22253 17.4 5.53784H12.6C12.6 5.15596 12.8923 4.92308 13.2 4.92308L16.8 4.92722Z"
      fill="#888B97" />
  </symbol>
  <symbol width="24" height="24" viewBox="0 0 24 24" fill="none" id="carport">
    <path
      d="M23.3837 6.62857L13.357 0.379291C12.5309 -0.130832 11.4664 -0.125616 10.6453 0.390245L0.608102 6.63378C-0.0151537 7.0255 -0.187369 7.82511 0.222668 8.41974C0.633251 9.01436 1.47082 9.17918 2.09462 8.78694L12.0104 2.61852L21.9142 8.79216C22.1416 8.93247 22.3958 8.99871 22.6473 8.99871C23.0912 8.99871 23.5242 8.79164 23.7828 8.41087C24.1885 7.81312 24.0092 7.01611 23.3837 6.62857Z"
      fill="#888B97" />
    <path
      d="M20.2106 14.7531C20.134 14.3031 19.7524 13.9702 19.3074 13.9702H18.796L18.6017 11.8962C18.3941 9.67813 16.5984 8 14.4247 8H9.57604C7.40184 8 5.60666 9.67865 5.39863 11.8962L5.2048 13.9702H4.69283C4.24734 13.9702 3.86628 14.3031 3.78865 14.7531L3.02755 19.1768C2.93317 19.7251 3.08438 20.2895 3.43347 20.715C3.76937 21.1249 4.26408 21.3694 4.78163 21.3876V22.1221C4.78163 23.162 5.59448 24 6.60979 24H7.18721C8.2015 24 9.02653 23.162 9.02653 22.1221V21.3996H14.9793V22.1206C14.9793 23.1609 15.7978 24 16.8121 24H17.39C18.4043 24 19.2237 23.1609 19.2237 22.1206V21.3876C19.7413 21.3694 20.2329 21.127 20.5678 20.7176C20.9169 20.291 21.0661 19.7298 20.9727 19.1804L20.2106 14.7531ZM6.39059 19.6933C5.53461 19.6933 4.84049 18.9822 4.84049 18.1036C4.84049 17.225 5.53461 16.5134 6.39059 16.5134C7.24708 16.5134 7.94171 17.2245 7.94171 18.1036C7.94171 18.9822 7.24708 19.6933 6.39059 19.6933ZM6.77723 13.9702L6.95634 12.057C7.08674 10.666 8.21266 9.61831 9.57604 9.61831H9.85562V10.2197C9.85562 10.7414 10.26 11.157 10.7684 11.157H13.2324C13.7408 11.157 14.1523 10.7414 14.1523 10.2197V9.61883H14.4247C15.7881 9.61883 16.914 10.6665 17.0439 12.0575L17.2236 13.9707L6.77723 13.9702ZM17.6082 19.6933C16.7522 19.6933 16.0581 18.9822 16.0581 18.1036C16.0581 17.225 16.7522 16.5134 17.6082 16.5134C18.4647 16.5134 19.1593 17.2245 19.1593 18.1036C19.1593 18.9822 18.4647 19.6933 17.6082 19.6933Z"
      fill="#888B97" />
  </symbol>
  <symbol width="25" height="24" viewBox="0 0 25 24" fill="none" id="shower">
    <path
      d="M23.0389 11.9553H1.96067C1.13057 11.9553 0.455078 12.6308 0.455078 13.4609C0.455078 14.291 1.13057 14.9665 1.96067 14.9665H23.0389C23.869 14.9665 24.5445 14.291 24.5445 13.4609C24.5445 12.6308 23.869 11.9553 23.0389 11.9553Z"
      fill="#888B97" />
    <path
      d="M23.1773 13.9819C22.9053 13.9056 22.6323 14.0602 22.557 14.3272L22.5179 14.4647H2.48252L2.44239 14.3272C2.36711 14.0602 2.0921 13.9076 1.82209 13.9819C1.55508 14.0581 1.40151 14.3362 1.47783 14.6022L2.86094 19.4441C3.28951 20.9447 4.6787 21.9926 6.23848 21.9926H18.7599C20.3207 21.9926 21.7089 20.9447 22.1375 19.4441L23.5206 14.6022C23.5979 14.3362 23.4433 14.0581 23.1773 13.9819ZM6.23947 19.9851C5.57099 19.9851 4.97478 19.5364 4.79209 18.893L4.14069 16.6106C4.06442 16.3436 4.21898 16.0665 4.48495 15.9903C4.75393 15.914 5.02997 16.0695 5.10525 16.3356L5.75665 18.618C5.81889 18.8318 6.0166 18.9824 6.23942 18.9824C6.51645 18.9824 6.7413 19.2072 6.7413 19.4843C6.74135 19.7613 6.5165 19.9851 6.23947 19.9851Z"
      fill="#888B97" />
    <path
      d="M7.20317 21.041C6.95527 20.9196 6.65514 21.017 6.52966 21.2659L5.52595 23.2733C5.40249 23.5212 5.50285 23.8224 5.7508 23.9469C5.82405 23.983 5.90037 24.0001 5.97565 24.0001C6.15933 24.0001 6.336 23.8987 6.42431 23.7221L7.42802 21.7146C7.55148 21.4666 7.45108 21.1655 7.20317 21.041Z"
      fill="#888B97" />
    <path
      d="M19.4737 23.2743L18.47 21.2668C18.3456 21.0179 18.0444 20.9185 17.7965 21.042C17.5486 21.1664 17.4482 21.4676 17.5716 21.7155L18.5753 23.723C18.6637 23.8986 18.8403 24 19.024 24C19.0993 24 19.1756 23.9829 19.2489 23.9478C19.4968 23.8233 19.5972 23.5222 19.4737 23.2743Z"
      fill="#888B97" />
    <path
      d="M20.6148 0C20.1029 0 19.6211 0.199725 19.2588 0.5621L17.6659 2.15501C17.4702 2.35073 17.4702 2.66893 17.6659 2.86465C17.8616 3.06038 18.1798 3.06038 18.3755 2.86465L19.9684 1.27274C20.14 1.10011 20.3699 1.00474 20.6198 1.00474C21.1236 1.00474 21.5332 1.41426 21.5332 1.91811V12.4572C21.5332 12.7342 21.758 12.9591 22.035 12.9591C22.3121 12.9591 22.5369 12.7342 22.5379 12.4562V1.91713C22.5379 0.860206 21.6787 0 20.6148 0Z"
      fill="#888B97" />
    <path
      d="M18.8774 2.65687L17.8737 1.65317C17.7592 1.53874 17.5996 1.48553 17.437 1.51263L14.9277 1.92417C14.7431 1.95428 14.5915 2.08475 14.5323 2.26142C14.4731 2.43809 14.5182 2.63481 14.6487 2.76829L17.6599 5.86979C17.7553 5.96916 17.8867 6.02237 18.0192 6.02237C18.0664 6.02237 18.1146 6.01536 18.1617 6.00129C18.3404 5.94911 18.4759 5.80157 18.512 5.61887L19.0139 3.10958C19.047 2.94594 18.9958 2.77628 18.8774 2.65687Z"
      fill="#888B97" />
    <path
      d="M12.3521 6.08057C12.1564 5.88485 11.8382 5.88485 11.6425 6.08057L10.6388 7.08428C10.4431 7.28001 10.4431 7.5982 10.6388 7.79393C10.7372 7.89127 10.8656 7.94049 10.9941 7.94049C11.1226 7.94049 11.251 7.89132 11.3484 7.79393L12.3521 6.79022C12.5479 6.59445 12.5479 6.2763 12.3521 6.08057Z"
      fill="#888B97" />
    <path
      d="M14.3597 8.08796C14.164 7.89223 13.8458 7.89223 13.6501 8.08796L12.6464 9.09166C12.4506 9.28739 12.4506 9.60559 12.6464 9.80131C12.7447 9.89866 12.8732 9.94787 13.0017 9.94787C13.1302 9.94787 13.2586 9.89871 13.356 9.80131L14.3597 8.79761C14.5554 8.60188 14.5554 8.28368 14.3597 8.08796Z"
      fill="#888B97" />
    <path
      d="M15.3634 5.07679C15.1676 4.88106 14.8494 4.88106 14.6537 5.07679L13.65 6.0805C13.4543 6.27622 13.4543 6.59442 13.65 6.79014C13.7484 6.88749 13.8768 6.9367 14.0053 6.9367C14.1338 6.9367 14.2623 6.88754 14.3597 6.79014L15.3634 5.78644C15.5591 5.59071 15.5591 5.27251 15.3634 5.07679Z"
      fill="#888B97" />
  </symbol>
  <symbol width="24" height="22" viewBox="0 0 24 22" fill="none" id="stairs">
    <path
      d="M22.7884 4H18.4324C17.7631 4 17.2207 4.53666 17.2207 5.19956V8.31351H14.0759C13.4064 8.31351 12.8641 8.84997 12.8641 9.51292V12.6271H9.71919C9.0497 12.6271 8.50752 13.1643 8.50752 13.8265V17.0907H5.21171C4.89012 17.0907 4.58195 17.2169 4.35482 17.4416C4.1275 17.6664 4 17.973 4 18.2901L4.00039 20.7999C4.00039 21.4634 4.54297 22 5.21206 22H22.7884C23.4579 22 24 21.4634 24 20.7999V5.19951C24.0001 4.53666 23.4579 4 22.7884 4Z"
      fill="#888B97" />
    <path
      d="M16.764 0.245303C16.4425 -0.0761127 15.9158 -0.0822899 15.5863 0.230429C10.2431 5.30548 5.15982 10.2624 0.244094 15.0549C0.0876831 15.2074 0 15.4146 0 15.6296V21.1877C0 21.6356 0.37278 22 0.832939 22C1.29264 22 1.66608 21.6357 1.66608 21.1877V15.9657C6.50203 11.2503 11.5017 6.37796 16.7485 1.39368C17.0778 1.08102 17.0845 0.566522 16.764 0.245303Z"
      fill="#888B97" />
  </symbol>
  <symbol width="16" height="20" viewBox="0 0 16 20" fill="none" id="call">
    <path
      d="M4.38443 0.479185C4.90952 0.320866 5.47301 0.347168 5.98107 0.553714C6.48914 0.760259 6.91114 1.13459 7.17683 1.61439L7.26683 1.79319L8.06003 3.55839C8.30112 4.09417 8.37937 4.689 8.28507 5.26891C8.19077 5.84882 7.92806 6.3882 7.52962 6.81999L7.37122 6.97839L6.11843 8.14599C5.89283 8.35959 6.06203 9.18639 6.87923 10.6C7.61243 11.872 8.21123 12.466 8.50403 12.4984H8.55562L8.61922 12.4864L11.0792 11.734C11.4098 11.6326 11.7627 11.6286 12.0955 11.7224C12.4283 11.8163 12.7271 12.004 12.956 12.2632L13.0664 12.4012L14.6936 14.6572C15.0129 15.0992 15.1722 15.6369 15.1451 16.1815C15.1181 16.7261 14.9064 17.2453 14.5448 17.6536L14.3984 17.8048L13.7468 18.4216C13.1628 18.9747 12.4322 19.3485 11.6419 19.4984C10.8516 19.6484 10.0349 19.5683 9.28883 19.2676C6.96683 18.3316 4.85723 16.1932 2.94083 12.874C1.02083 9.54639 0.222826 6.64599 0.579226 4.16199C0.687179 3.41097 0.996558 2.70322 1.47449 2.11394C1.95243 1.52465 2.58107 1.07584 3.29363 0.815185L3.52523 0.738385L4.38443 0.479185Z"
      fill="white" />
  </symbol>
  <symbol width="28" height="28" viewBox="0 0 28 28" fill="none" id="star">
    <path
      d="M25.6055 10.7088C25.5322 10.4929 25.3972 10.3031 25.2172 10.1629C25.0373 10.0228 24.8202 9.93838 24.5929 9.92018L17.9417 9.39168L15.0635 3.02052C14.9719 2.81531 14.8228 2.64103 14.6342 2.51868C14.4457 2.39634 14.2258 2.33118 14.0011 2.33105C13.7763 2.33093 13.5563 2.39585 13.3677 2.51799C13.179 2.64012 13.0297 2.81425 12.9378 3.01935L10.0597 9.39168L3.40852 9.92018C3.18505 9.93789 2.97141 10.0196 2.79316 10.1555C2.61492 10.2915 2.47961 10.4759 2.40342 10.6867C2.32724 10.8975 2.31341 11.1259 2.36358 11.3443C2.41376 11.5628 2.52582 11.7622 2.68635 11.9187L7.60152 16.7102L5.86318 24.2375C5.8104 24.4654 5.82732 24.7038 5.91174 24.9219C5.99616 25.14 6.14419 25.3278 6.33662 25.4607C6.52905 25.5936 6.75699 25.6657 6.99086 25.6674C7.22474 25.6692 7.45375 25.6007 7.64818 25.4707L14.0007 21.2357L20.3532 25.4707C20.5519 25.6026 20.7863 25.6706 21.0248 25.6653C21.2632 25.6601 21.4944 25.582 21.6871 25.4414C21.8799 25.3009 22.025 25.1047 22.1029 24.8793C22.1808 24.6538 22.1879 24.4099 22.123 24.1804L19.9892 16.7137L25.2812 11.9514C25.6277 11.6387 25.7549 11.151 25.6055 10.7088V10.7088Z"
      fill="#F59E0B" />
  </symbol>
  <symbol width="20" height="20" viewBox="0 0 20 20" fill="none" id="clock">
    <path
      d="M9.99 0C4.47 0 0 4.48 0 10C0 15.52 4.47 20 9.99 20C15.52 20 20 15.52 20 10C20 4.48 15.52 0 9.99 0ZM14 14C13.9075 14.0927 13.7976 14.1663 13.6766 14.2164C13.5557 14.2666 13.426 14.2924 13.295 14.2924C13.164 14.2924 13.0343 14.2666 12.9134 14.2164C12.7924 14.1663 12.6825 14.0927 12.59 14L9.3 10.71C9.20551 10.6174 9.13034 10.5069 9.07885 10.3851C9.02735 10.2632 9.00055 10.1323 9 10V6C9 5.45 9.45 5 10 5C10.55 5 11 5.45 11 6V9.59L14 12.59C14.39 12.98 14.39 13.61 14 14Z"
      fill="#888B97" />
  </symbol>
  <symbol width="20" height="16" viewBox="0 0 20 16" fill="none" id="mail">
    <path
      d="M17 0H3C2.20435 0 1.44129 0.316071 0.87868 0.87868C0.316071 1.44129 0 2.20435 0 3V13C0 13.7956 0.316071 14.5587 0.87868 15.1213C1.44129 15.6839 2.20435 16 3 16H17C17.7956 16 18.5587 15.6839 19.1213 15.1213C19.6839 14.5587 20 13.7956 20 13V3C20 2.20435 19.6839 1.44129 19.1213 0.87868C18.5587 0.316071 17.7956 0 17 0ZM17 2L10.5 6.47C10.348 6.55777 10.1755 6.60397 10 6.60397C9.82446 6.60397 9.65202 6.55777 9.5 6.47L3 2H17Z"
      fill="#3B82F6" />
  </symbol>
  <symbol width="13" height="20" viewBox="0 0 13 20" fill="none" id="facebook">
    <path
      d="M3.3186 20V10.6154H0V7.23652H3.3186V4.3505C3.3186 2.08264 5.27891 0 9.79588 0C11.6247 0 12.9771 0.1311 12.9771 0.1311L12.8705 3.28642C12.8705 3.28642 11.4913 3.27638 9.98632 3.27638C8.35743 3.27638 8.09646 3.83768 8.09646 4.7693V7.23652H13L12.7866 10.6154H8.09646V20H3.3186Z"
      fill="#3C4563" />
  </symbol>
  <symbol width="24" height="20" viewBox="0 0 24 20" fill="none" id="twitter">
    <path
      d="M24 2.37575C23.1174 2.76628 22.157 3.04735 21.1676 3.15682C22.1948 2.53089 22.9639 1.54202 23.3308 0.375752C22.367 0.963885 21.3111 1.37629 20.2101 1.59469C19.7499 1.09003 19.1933 0.687999 18.575 0.413643C17.9567 0.139287 17.2899 -0.00151415 16.6163 1.22793e-05C13.8906 1.22793e-05 11.6986 2.26628 11.6986 5.04735C11.6986 5.43788 11.7447 5.82841 11.8197 6.20415C7.73849 5.98522 4.09855 3.98522 1.67864 0.923089C1.23771 1.69562 1.00665 2.57524 1.00949 3.47042C1.00949 5.2219 1.87766 6.76628 3.20154 7.67456C2.42136 7.64305 1.65944 7.42308 0.977767 7.03255V7.09468C0.977767 9.54734 2.66795 11.5799 4.92056 12.0473C4.49761 12.16 4.06251 12.2177 3.62553 12.2189C3.30537 12.2189 3.00252 12.1864 2.69679 12.142C3.31979 14.142 5.134 15.5947 7.29432 15.642C5.60413 17 3.48708 17.7988 1.18832 17.7988C0.775868 17.7988 0.395145 17.784 0 17.7367C2.18051 19.1716 4.7677 20 7.5539 20C16.599 20 21.5484 12.3136 21.5484 5.64202C21.5484 5.42309 21.5484 5.20415 21.534 4.98522C22.4915 4.26628 23.3308 3.37575 24 2.37575Z"
      fill="#3C4563" />
  </symbol>

  <symbol width="20" height="20" viewBox="0 0 20 20" fill="none" id="instagram">
    <path
      d="M9.99731 6.66525C8.16111 6.66525 6.66262 8.16376 6.66262 10C6.66262 11.8362 8.16111 13.3348 9.99731 13.3348C11.8335 13.3348 13.332 11.8362 13.332 10C13.332 8.16376 11.8335 6.66525 9.99731 6.66525ZM19.9989 10C19.9989 8.61907 20.0114 7.25064 19.9338 5.87221C19.8563 4.27113 19.4911 2.85017 18.3203 1.67938C17.147 0.506085 15.7286 0.14334 14.1275 0.065788C12.7466 -0.0117644 11.3782 0.000744113 9.99981 0.000744113C8.61891 0.000744113 7.25051 -0.0117644 5.8721 0.065788C4.27105 0.14334 2.85012 0.508587 1.67935 1.67938C0.506076 2.85267 0.143338 4.27113 0.0657868 5.87221C-0.0117642 7.25314 0.000744099 8.62157 0.000744099 10C0.000744099 11.3784 -0.0117642 12.7494 0.0657868 14.1278C0.143338 15.7289 0.508578 17.1498 1.67935 18.3206C2.85262 19.4939 4.27105 19.8567 5.8721 19.9342C7.25301 20.0118 8.62141 19.9993 9.99981 19.9993C11.3807 19.9993 12.7491 20.0118 14.1275 19.9342C15.7286 19.8567 17.1495 19.4914 18.3203 18.3206C19.4936 17.1473 19.8563 15.7289 19.9338 14.1278C20.0139 12.7494 19.9989 11.3809 19.9989 10ZM9.99731 15.131C7.15795 15.131 4.86644 12.8394 4.86644 10C4.86644 7.16058 7.15795 4.86903 9.99731 4.86903C12.8367 4.86903 15.1282 7.16058 15.1282 10C15.1282 12.8394 12.8367 15.131 9.99731 15.131ZM15.3383 5.8572C14.6754 5.8572 14.14 5.32184 14.14 4.65889C14.14 3.99594 14.6754 3.46058 15.3383 3.46058C16.0013 3.46058 16.5366 3.99594 16.5366 4.65889C16.5368 4.81631 16.5059 4.97222 16.4458 5.1177C16.3856 5.26317 16.2974 5.39535 16.1861 5.50666C16.0748 5.61798 15.9426 5.70624 15.7971 5.76639C15.6516 5.82654 15.4957 5.8574 15.3383 5.8572Z"
      fill="#3C4563" />
  </symbol>


</svg>