<svg fill="none" xmlns="http://www.w3.org/2000/svg">
  <symbol viewBox="0 0 11 6" fill="none" id="arrow-down">
    <path
      d="M10.6236 1.12001C10.624 0.946246 10.5631 0.777845 10.4515 0.644043C10.3887 0.568737 10.3116 0.506487 10.2245 0.460859C10.1374 0.415232 10.0421 0.387122 9.94413 0.378141C9.84612 0.369161 9.74728 0.379485 9.65329 0.408522C9.5593 0.43756 9.47199 0.48474 9.39637 0.547361L5.38526 3.87916L1.36668 0.666354C1.29013 0.604578 1.20205 0.558444 1.10751 0.530606C1.01296 0.502768 0.913813 0.493774 0.81576 0.50414C0.717706 0.514507 0.62268 0.54403 0.536144 0.591013C0.449609 0.637995 0.373269 0.701511 0.311514 0.77791C0.243388 0.854858 0.192001 0.94497 0.160579 1.04259C0.129157 1.14021 0.118378 1.24323 0.128919 1.34519C0.139459 1.44715 0.171091 1.54584 0.22183 1.63507C0.272569 1.7243 0.341319 1.80215 0.423766 1.86372L4.91381 5.45582C5.04771 5.5652 5.21567 5.625 5.38901 5.625C5.56234 5.625 5.7303 5.5652 5.8642 5.45582L10.3542 1.73729C10.4448 1.66268 10.5164 1.56791 10.5632 1.46066C10.61 1.35341 10.6307 1.23671 10.6236 1.12001Z"
      fill="white" />
  </symbol>
  <symbol viewBox="0 0 36 36" fill="none" id="logo">
    <path
      d="M0 4C0 1.79086 1.79086 0 4 0H28C30.2091 0 32 1.79086 32 4V8C32 21.2548 21.2548 32 8 32H4C1.79086 32 0 30.2091 0 28V4Z"
      fill="#F59E0B" />
    <path
      d="M4 8C4 5.79086 5.79086 4 8 4H32C34.2091 4 36 5.79086 36 8V12C36 25.2548 25.2548 36 12 36H8C5.79086 36 4 34.2091 4 32V8Z"
      fill="#4BE4C9" />
  </symbol>
  <symbol viewBox="0 0 18 22" fill="none" id="gps">
    <path
      d="M9 0C11.3869 0 13.6761 0.993372 15.364 2.76159C17.0518 4.5298 18 6.92801 18 9.42865C18 13.934 15.0975 18.081 9.402 21.8776C9.28181 21.9575 9.14237 22 9 22C8.85763 22 8.71819 21.9575 8.598 21.8776C2.9025 18.081 0 13.934 0 9.42865C0 6.92801 0.948211 4.5298 2.63604 2.76159C4.32387 0.993372 6.61305 0 9 0ZM9 6.28576C8.20435 6.28576 7.44129 6.61689 6.87868 7.20629C6.31607 7.7957 6 8.5951 6 9.42865C6 10.2622 6.31607 11.0616 6.87868 11.651C7.44129 12.2404 8.20435 12.5715 9 12.5715C9.79565 12.5715 10.5587 12.2404 11.1213 11.651C11.6839 11.0616 12 10.2622 12 9.42865C12 8.5951 11.6839 7.7957 11.1213 7.20629C10.5587 6.61689 9.79565 6.28576 9 6.28576Z"
      fill="#F59E0B" />
  </symbol>
  <symbol viewBox="0 0 7 14" fill="none" id="arrow-left">
    <path
      d="M0.993352 0.00180435C0.761661 0.00134945 0.537126 0.0825443 0.358724 0.231296C0.258315 0.315059 0.175316 0.417933 0.114479 0.534022C0.0536416 0.650112 0.0161625 0.777137 0.00418798 0.907824C-0.00778654 1.03851 0.00597897 1.17029 0.0446958 1.29562C0.0834126 1.42094 0.146319 1.53735 0.229814 1.63818L4.67221 6.98632L0.388472 12.3444C0.306104 12.4465 0.244592 12.5639 0.207475 12.69C0.170357 12.8161 0.158365 12.9482 0.172187 13.079C0.186009 13.2097 0.225373 13.3364 0.288017 13.4518C0.35066 13.5672 0.435349 13.669 0.537213 13.7513C0.639811 13.8421 0.75996 13.9107 0.89012 13.9526C1.02028 13.9945 1.15764 14.0088 1.29359 13.9948C1.42953 13.9807 1.56112 13.9385 1.68009 13.8709C1.79907 13.8032 1.90286 13.7116 1.98496 13.6016L6.77442 7.61492C6.92027 7.43638 7 7.21244 7 6.98133C7 6.75021 6.92027 6.52627 6.77442 6.34773L1.81639 0.361009C1.71691 0.240259 1.59055 0.144807 1.44755 0.0823965C1.30455 0.0199862 1.14894 -0.00762463 0.993352 0.00180435Z"
      fill="white" />
  </symbol>
  <symbol viewBox="0 0 9 18" fill="none" id="arrow-right">
    <path
      d="M7.50759 17.1646C7.7779 17.1651 8.03986 17.0704 8.24799 16.8969C8.36514 16.7991 8.46197 16.6791 8.53295 16.5437C8.60392 16.4082 8.64765 16.2601 8.66162 16.1076C8.67559 15.9551 8.65953 15.8014 8.61436 15.6552C8.56919 15.5089 8.4958 15.3731 8.39839 15.2555L3.21559 9.01601L8.21329 2.76487C8.30938 2.6458 8.38115 2.50879 8.42445 2.36172C8.46775 2.21465 8.48174 2.06042 8.46562 1.90789C8.44949 1.75536 8.40357 1.60754 8.33048 1.47293C8.2574 1.33832 8.1586 1.21957 8.03976 1.12351C7.92006 1.01753 7.77988 0.937598 7.62803 0.88872C7.47618 0.839841 7.31592 0.823074 7.15732 0.83947C6.99872 0.855866 6.8452 0.905071 6.7064 0.983998C6.56759 1.06293 6.4465 1.16987 6.35072 1.29812L0.763011 8.28263C0.592855 8.49093 0.499836 8.7522 0.499836 9.02183C0.499836 9.29146 0.592855 9.55273 0.763011 9.76102L6.54739 16.7455C6.66344 16.8864 6.81087 16.9978 6.9777 17.0706C7.14453 17.1434 7.32607 17.1756 7.50759 17.1646Z"
      fill="#3C4563" />
  </symbol>
  <symbol viewBox="0 0 18 19" id="house">
    <path
      d="M18.0001 8.83189V17.5C17.9999 17.7719 17.9263 18.0386 17.7869 18.272C17.6475 18.5054 17.4477 18.6968 17.2085 18.8259C16.9917 18.9432 16.7486 19.0031 16.5022 18.9999H11.9968C11.7979 18.9999 11.6071 18.9209 11.4665 18.7803C11.3258 18.6396 11.2468 18.4488 11.2468 18.2499V13.7493C11.2468 13.5504 11.1678 13.3596 11.0271 13.2189C10.8865 13.0783 10.6957 12.9993 10.4968 12.9993H7.49682C7.29791 12.9993 7.10714 13.0783 6.96649 13.2189C6.82584 13.3596 6.74682 13.5504 6.74682 13.7493V18.2499C6.74682 18.4488 6.6678 18.6396 6.52715 18.7803C6.3865 18.9209 6.19573 18.9999 5.99682 18.9999H1.50029C1.28764 19.0005 1.07732 18.9556 0.883446 18.8682C0.689567 18.7808 0.516599 18.653 0.376132 18.4934C0.129551 18.2082 -0.00419596 17.8427 0.000100382 17.4657V8.8318C0.000263818 8.62281 0.0440112 8.41615 0.128549 8.22503C0.213086 8.0339 0.336555 7.86251 0.491069 7.7218L7.99041 0.903078C8.26588 0.650753 8.62589 0.510777 8.99945 0.510742C9.37302 0.510707 9.73305 0.650617 10.0086 0.90289L17.5092 7.72189C17.6637 7.86263 17.7871 8.03403 17.8717 8.22515C17.9562 8.41627 17.9999 8.62292 18.0001 8.83189Z" />
  </symbol>
  <symbol viewBox="0 0 18 18" id="villa">
    <path
      d="M4 18.0001H1C0.45 18.0001 0 17.5501 0 17.0001V5.69006C0 5.27006 0.25 4.90006 0.64 4.75006L11.64 0.52006C11.7921 0.461382 11.9561 0.440759 12.118 0.459986C12.2798 0.479212 12.4345 0.537706 12.5686 0.630376C12.7027 0.723045 12.8121 0.847081 12.8873 0.991686C12.9624 1.13629 13.0012 1.29708 13 1.46006V7.00006H5C4.45 7.00006 4 7.45006 4 8.00006V18.0001ZM14 9.00006H7C6.45 9.00006 6 9.45006 6 10.0001V17.0001C6 17.5501 6.45 18.0001 7 18.0001H11V14.0001C11 13.4501 11.45 13.0001 12 13.0001C12.55 13.0001 13 13.4501 13 14.0001V18.0001H17C17.55 18.0001 18 17.5501 18 17.0001V9.00006C18 7.90006 17.1 7.00006 16 7.00006C14.9 7.00006 14 7.90006 14 9.00006Z" />
  </symbol>
  <symbol viewBox="0 0 18 18" id="apartment">
    <path
      d="M14 8V2C14 0.9 13.1 0 12 0H6C4.9 0 4 0.9 4 2V4H2C0.9 4 0 4.9 0 6V16C0 17.1 0.9 18 2 18H8V14H10V18H16C17.1 18 18 17.1 18 16V10C18 8.9 17.1 8 16 8H14ZM4 16H2V14H4V16ZM4 12H2V10H4V12ZM4 8H2V6H4V8ZM8 12H6V10H8V12ZM8 8H6V6H8V8ZM8 4H6V2H8V4ZM12 12H10V10H12V12ZM12 8H10V6H12V8ZM12 4H10V2H12V4ZM16 16H14V14H16V16ZM16 12H14V10H16V12Z" />
  </symbol>
  <symbol viewBox="0 0 111 34" fill="none" id="popular">
    <rect width="111" height="34" rx="17" fill="#FEE2E2" />
    <path
      d="M29.0328 15.3314C28.7295 14.6487 28.2885 14.0359 27.7375 13.5314L27.2828 13.1142C27.2674 13.1005 27.2488 13.0907 27.2287 13.0858C27.2086 13.0808 27.1876 13.0809 27.1675 13.086C27.1475 13.0911 27.129 13.1011 27.1137 13.115C27.0984 13.1289 27.0867 13.1463 27.0797 13.1658L26.8766 13.7486C26.75 14.1142 26.5172 14.4877 26.1875 14.8549C26.1656 14.8783 26.1406 14.8846 26.1234 14.8861C26.1063 14.8877 26.0797 14.8846 26.0562 14.8627C26.0344 14.8439 26.0234 14.8158 26.025 14.7877C26.0828 13.8471 25.8016 12.7861 25.1859 11.6314C24.6766 10.6721 23.9688 9.92361 23.0844 9.40174L22.4391 9.02205C22.3547 8.97205 22.2469 9.03768 22.2516 9.13611L22.2859 9.88611C22.3094 10.3986 22.25 10.8517 22.1094 11.2283C21.9375 11.6892 21.6906 12.1174 21.375 12.5017C21.1553 12.7689 20.9064 13.0105 20.6328 13.2221C19.9739 13.7286 19.4381 14.3776 19.0656 15.1205C18.694 15.8699 18.5005 16.695 18.5 17.5314C18.5 18.2689 18.6453 18.983 18.9328 19.6564C19.2104 20.3048 19.611 20.8933 20.1125 21.3892C20.6188 21.8892 21.2063 22.283 21.8609 22.5564C22.5391 22.8408 23.2578 22.9846 24 22.9846C24.7422 22.9846 25.4609 22.8408 26.1391 22.558C26.7921 22.2862 27.386 21.8897 27.8875 21.3908C28.3938 20.8908 28.7906 20.3064 29.0672 19.658C29.3543 18.9864 29.5015 18.2634 29.5 17.533C29.5 16.7705 29.3438 16.0299 29.0328 15.3314Z"
      fill="#EF4444" />
    <path
      d="M43.372 22V12.2H47.362C47.894 12.2 48.3747 12.3353 48.804 12.606C49.2427 12.8673 49.5927 13.2267 49.854 13.684C50.1153 14.1413 50.246 14.65 50.246 15.21C50.246 15.77 50.1153 16.2787 49.854 16.736C49.5927 17.1933 49.2427 17.562 48.804 17.842C48.3747 18.1127 47.894 18.248 47.362 18.248H44.884V22H43.372ZM44.884 16.792H47.334C47.586 16.792 47.8147 16.722 48.02 16.582C48.2253 16.4327 48.3887 16.2413 48.51 16.008C48.6407 15.7653 48.706 15.4993 48.706 15.21C48.706 14.7807 48.5707 14.4167 48.3 14.118C48.0293 13.81 47.7073 13.656 47.334 13.656H44.884V16.792ZM55.0483 22.14C54.3297 22.14 53.6857 21.9767 53.1163 21.65C52.5563 21.314 52.113 20.8613 51.7863 20.292C51.4597 19.7133 51.2963 19.0553 51.2963 18.318C51.2963 17.5807 51.4597 16.9273 51.7863 16.358C52.113 15.7793 52.5563 15.3267 53.1163 15C53.6857 14.664 54.3297 14.496 55.0483 14.496C55.7577 14.496 56.3923 14.664 56.9523 15C57.5217 15.3267 57.9697 15.7793 58.2963 16.358C58.623 16.9273 58.7863 17.5807 58.7863 18.318C58.7863 19.0553 58.623 19.7133 58.2963 20.292C57.9697 20.8613 57.5217 21.314 56.9523 21.65C56.3923 21.9767 55.7577 22.14 55.0483 22.14ZM55.0483 20.824C55.487 20.824 55.879 20.7167 56.2243 20.502C56.5697 20.278 56.8403 19.9793 57.0363 19.606C57.2323 19.2233 57.3257 18.794 57.3163 18.318C57.3257 17.8327 57.2323 17.4033 57.0363 17.03C56.8403 16.6473 56.5697 16.3487 56.2243 16.134C55.879 15.9193 55.487 15.812 55.0483 15.812C54.6097 15.812 54.213 15.924 53.8583 16.148C53.513 16.3627 53.2423 16.6613 53.0463 17.044C52.8503 17.4173 52.757 17.842 52.7663 18.318C52.757 18.794 52.8503 19.2233 53.0463 19.606C53.2423 19.9793 53.513 20.278 53.8583 20.502C54.213 20.7167 54.6097 20.824 55.0483 20.824ZM60.3576 25.08V14.65H61.8136V15.7C62.0376 15.3827 62.3689 15.1073 62.8076 14.874C63.2556 14.6407 63.7176 14.524 64.1936 14.524C64.8563 14.524 65.4443 14.6873 65.9576 15.014C66.4709 15.3407 66.8769 15.7887 67.1756 16.358C67.4743 16.9273 67.6236 17.5807 67.6236 18.318C67.6236 19.046 67.4743 19.6993 67.1756 20.278C66.8863 20.8473 66.4849 21.3 65.9716 21.636C65.4583 21.9627 64.8796 22.126 64.2356 22.126C63.7596 22.126 63.3023 22.0187 62.8636 21.804C62.4249 21.5893 62.0749 21.3327 61.8136 21.034V25.08H60.3576ZM63.9976 20.796C64.4269 20.796 64.8096 20.6887 65.1456 20.474C65.4816 20.2593 65.7476 19.9653 65.9436 19.592C66.1396 19.2187 66.2376 18.794 66.2376 18.318C66.2376 17.842 66.1396 17.422 65.9436 17.058C65.7569 16.6847 65.4956 16.3907 65.1596 16.176C64.8236 15.9613 64.4363 15.854 63.9976 15.854C63.5589 15.854 63.1716 15.9613 62.8356 16.176C62.4996 16.3813 62.2336 16.6707 62.0376 17.044C61.8416 17.4173 61.7436 17.842 61.7436 18.318C61.7436 18.794 61.8416 19.2187 62.0376 19.592C62.2336 19.9653 62.4996 20.2593 62.8356 20.474C63.1716 20.6887 63.5589 20.796 63.9976 20.796ZM71.7656 22.14C70.9816 22.14 70.3563 21.874 69.8896 21.342C69.423 20.81 69.1896 20.0913 69.1896 19.186V14.65H70.6316V18.794C70.6316 19.438 70.781 19.9467 71.0796 20.32C71.3876 20.6933 71.8123 20.88 72.3536 20.88C72.8856 20.88 73.3243 20.712 73.6696 20.376C74.0243 20.04 74.2016 19.606 74.2016 19.074V14.65H75.6436V22H74.2016V20.824C73.959 21.216 73.6183 21.5333 73.1796 21.776C72.7503 22.0187 72.279 22.14 71.7656 22.14ZM77.6942 22V11.64H79.1362V22H77.6942ZM83.8712 22.14C83.2645 22.14 82.7092 21.972 82.2052 21.636C81.7105 21.3 81.3138 20.8427 81.0152 20.264C80.7165 19.6853 80.5672 19.032 80.5672 18.304C80.5672 17.5667 80.7165 16.9133 81.0152 16.344C81.3232 15.7653 81.7338 15.3127 82.2472 14.986C82.7698 14.6593 83.3532 14.496 83.9972 14.496C84.5478 14.496 85.0332 14.6173 85.4532 14.86C85.8825 15.0933 86.2092 15.3967 86.4332 15.77V14.65H87.8892V22H86.4332V20.866C86.1812 21.2207 85.8218 21.524 85.3552 21.776C84.8978 22.0187 84.4032 22.14 83.8712 22.14ZM84.2492 20.81C84.6878 20.81 85.0752 20.7027 85.4112 20.488C85.7472 20.2733 86.0085 19.9793 86.1952 19.606C86.3912 19.2233 86.4892 18.7893 86.4892 18.304C86.4892 17.828 86.3912 17.4033 86.1952 17.03C86.0085 16.6567 85.7472 16.3627 85.4112 16.148C85.0752 15.9333 84.6878 15.826 84.2492 15.826C83.8198 15.826 83.4372 15.9333 83.1012 16.148C82.7745 16.3627 82.5132 16.6567 82.3172 17.03C82.1305 17.4033 82.0372 17.828 82.0372 18.304C82.0372 18.7893 82.1305 19.2233 82.3172 19.606C82.5132 19.9793 82.7745 20.2733 83.1012 20.488C83.4372 20.7027 83.8198 20.81 84.2492 20.81ZM89.9025 22V14.65H91.3585V16.036C91.5732 15.5973 91.8859 15.2333 92.2965 14.944C92.7072 14.6453 93.1412 14.496 93.5985 14.496C93.7572 14.496 93.9065 14.51 94.0465 14.538C94.1959 14.566 94.3125 14.5987 94.3965 14.636L94.0185 16.204C93.9065 16.1573 93.7805 16.12 93.6405 16.092C93.5099 16.0547 93.3792 16.036 93.2485 16.036C92.9125 16.036 92.5999 16.12 92.3105 16.288C92.0305 16.456 91.8019 16.6847 91.6245 16.974C91.4472 17.2633 91.3585 17.5853 91.3585 17.94V22H89.9025Z"
      fill="#EF4444" />
  </symbol>
  <symbol viewBox="0 0 135 34" fill="none" id="new">
    <rect width="135" height="34" rx="17" fill="#DBEAFE" />
    <path
      d="M30.0001 15.2213V21C29.9999 21.1812 29.9508 21.3591 29.8579 21.5147C29.765 21.6703 29.6318 21.7979 29.4723 21.8839C29.3278 21.9622 29.1657 22.0021 29.0014 21.9999H25.9979C25.8653 21.9999 25.7381 21.9473 25.6443 21.8535C25.5506 21.7597 25.4979 21.6326 25.4979 21.4999V18.4995C25.4979 18.3669 25.4452 18.2397 25.3514 18.146C25.2577 18.0522 25.1305 17.9995 24.9979 17.9995H22.9979C22.8653 17.9995 22.7381 18.0522 22.6443 18.146C22.5506 18.2397 22.4979 18.3669 22.4979 18.4995V21.4999C22.4979 21.6326 22.4452 21.7597 22.3514 21.8535C22.2577 21.9473 22.1305 21.9999 21.9979 21.9999H19.0002C18.8584 22.0003 18.7182 21.9704 18.589 21.9121C18.4597 21.8539 18.3444 21.7687 18.2508 21.6623C18.0864 21.4721 17.9972 21.2285 18.0001 20.9771V15.2212C18.0002 15.0819 18.0293 14.9441 18.0857 14.8167C18.1421 14.6893 18.2244 14.575 18.3274 14.4812L23.3269 9.93539C23.5106 9.76717 23.7506 9.67385 23.9996 9.67383C24.2487 9.6738 24.4887 9.76708 24.6724 9.93526L29.6728 14.4813C29.7758 14.5751 29.8581 14.6894 29.9144 14.8168C29.9708 14.9442 29.9999 15.0819 30.0001 15.2213Z"
      fill="#1D4ED8" />
    <path
      d="M43.372 22V12.2H44.73L50.428 19.83C50.3533 19.2607 50.2973 18.6027 50.26 17.856C50.232 17.1093 50.218 16.2973 50.218 15.42V12.2H51.73V22H50.344L44.646 14.524C44.7113 15.336 44.7627 15.966 44.8 16.414C44.8373 16.8527 44.8607 17.184 44.87 17.408C44.8793 17.6227 44.884 17.7953 44.884 17.926V22H43.372ZM57.5396 22.14C56.7836 22.14 56.1116 21.9813 55.5236 21.664C54.9449 21.3373 54.4876 20.894 54.1516 20.334C53.8249 19.774 53.6616 19.13 53.6616 18.402C53.6616 17.6273 53.8202 16.9507 54.1376 16.372C54.4642 15.784 54.9076 15.3267 55.4676 15C56.0369 14.664 56.6856 14.4913 57.4136 14.482C58.0482 14.4913 58.6176 14.65 59.1216 14.958C59.6349 15.266 60.0362 15.686 60.3256 16.218C60.6242 16.75 60.7642 17.3613 60.7456 18.052L60.7316 18.668H55.1036C55.1876 19.3307 55.4582 19.858 55.9156 20.25C56.3822 20.6327 56.9702 20.824 57.6796 20.824C58.0436 20.824 58.3796 20.7633 58.6876 20.642C59.0049 20.5207 59.3456 20.3013 59.7096 19.984L60.4376 21.006C60.0922 21.342 59.6536 21.6173 59.1216 21.832C58.5896 22.0373 58.0622 22.14 57.5396 22.14ZM57.4136 15.812C56.1536 15.812 55.4022 16.3813 55.1596 17.52H59.2756V17.422C59.2476 17.114 59.1449 16.8387 58.9676 16.596C58.7902 16.3533 58.5662 16.162 58.2956 16.022C58.0249 15.882 57.7309 15.812 57.4136 15.812ZM63.982 22L61.476 14.65L62.932 14.636L64.584 19.704L66.348 15.812H67.216L68.966 19.648L70.604 14.65H72.06L69.582 22H68.588L66.712 17.73L64.962 22H63.982ZM77.6611 22V12.2H79.1731V16.386H84.0591V12.2H85.5711V22H84.0591V17.842H79.1731V22H77.6611ZM91.2515 22.14C90.5328 22.14 89.8888 21.9767 89.3195 21.65C88.7595 21.314 88.3161 20.8613 87.9895 20.292C87.6628 19.7133 87.4995 19.0553 87.4995 18.318C87.4995 17.5807 87.6628 16.9273 87.9895 16.358C88.3161 15.7793 88.7595 15.3267 89.3195 15C89.8888 14.664 90.5328 14.496 91.2515 14.496C91.9608 14.496 92.5955 14.664 93.1555 15C93.7248 15.3267 94.1728 15.7793 94.4995 16.358C94.8261 16.9273 94.9895 17.5807 94.9895 18.318C94.9895 19.0553 94.8261 19.7133 94.4995 20.292C94.1728 20.8613 93.7248 21.314 93.1555 21.65C92.5955 21.9767 91.9608 22.14 91.2515 22.14ZM91.2515 20.824C91.6901 20.824 92.0821 20.7167 92.4275 20.502C92.7728 20.278 93.0435 19.9793 93.2395 19.606C93.4355 19.2233 93.5288 18.794 93.5195 18.318C93.5288 17.8327 93.4355 17.4033 93.2395 17.03C93.0435 16.6473 92.7728 16.3487 92.4275 16.134C92.0821 15.9193 91.6901 15.812 91.2515 15.812C90.8128 15.812 90.4161 15.924 90.0615 16.148C89.7161 16.3627 89.4455 16.6613 89.2495 17.044C89.0535 17.4173 88.9601 17.842 88.9695 18.318C88.9601 18.794 89.0535 19.2233 89.2495 19.606C89.4455 19.9793 89.7161 20.278 90.0615 20.502C90.4161 20.7167 90.8128 20.824 91.2515 20.824ZM99.1367 22.14C98.3527 22.14 97.7274 21.874 97.2607 21.342C96.7941 20.81 96.5607 20.0913 96.5607 19.186V14.65H98.0027V18.794C98.0027 19.438 98.1521 19.9467 98.4507 20.32C98.7587 20.6933 99.1834 20.88 99.7247 20.88C100.257 20.88 100.695 20.712 101.041 20.376C101.395 20.04 101.573 19.606 101.573 19.074V14.65H103.015V22H101.573V20.824C101.33 21.216 100.989 21.5333 100.551 21.776C100.121 22.0187 99.6501 22.14 99.1367 22.14ZM107.487 22.14C106.871 22.14 106.316 22.0327 105.821 21.818C105.327 21.6033 104.916 21.286 104.589 20.866L105.569 20.026C105.849 20.3527 106.153 20.5907 106.479 20.74C106.815 20.88 107.193 20.95 107.613 20.95C107.959 20.95 108.239 20.866 108.453 20.698C108.677 20.53 108.789 20.3013 108.789 20.012C108.789 19.7693 108.701 19.5733 108.523 19.424C108.346 19.284 107.94 19.13 107.305 18.962C106.764 18.822 106.321 18.6633 105.975 18.486C105.63 18.3087 105.364 18.108 105.177 17.884C104.907 17.548 104.771 17.1233 104.771 16.61C104.771 16.1993 104.888 15.8353 105.121 15.518C105.355 15.2007 105.667 14.9533 106.059 14.776C106.461 14.5893 106.909 14.496 107.403 14.496C107.926 14.496 108.43 14.6033 108.915 14.818C109.41 15.0233 109.807 15.308 110.105 15.672L109.279 16.582C109.009 16.3113 108.705 16.0967 108.369 15.938C108.043 15.77 107.744 15.686 107.473 15.686C107.072 15.686 106.759 15.7607 106.535 15.91C106.321 16.0593 106.213 16.2787 106.213 16.568C106.223 16.82 106.325 17.0253 106.521 17.184C106.717 17.3427 107.133 17.5013 107.767 17.66C108.234 17.7813 108.617 17.9167 108.915 18.066C109.223 18.206 109.466 18.3693 109.643 18.556C109.83 18.7333 109.961 18.9387 110.035 19.172C110.11 19.4053 110.147 19.6667 110.147 19.956C110.147 20.376 110.026 20.754 109.783 21.09C109.55 21.4167 109.233 21.6733 108.831 21.86C108.43 22.0467 107.982 22.14 107.487 22.14ZM115.167 22.14C114.411 22.14 113.739 21.9813 113.151 21.664C112.572 21.3373 112.115 20.894 111.779 20.334C111.452 19.774 111.289 19.13 111.289 18.402C111.289 17.6273 111.447 16.9507 111.765 16.372C112.091 15.784 112.535 15.3267 113.095 15C113.664 14.664 114.313 14.4913 115.041 14.482C115.675 14.4913 116.245 14.65 116.749 14.958C117.262 15.266 117.663 15.686 117.953 16.218C118.251 16.75 118.391 17.3613 118.373 18.052L118.359 18.668H112.731C112.815 19.3307 113.085 19.858 113.543 20.25C114.009 20.6327 114.597 20.824 115.307 20.824C115.671 20.824 116.007 20.7633 116.315 20.642C116.632 20.5207 116.973 20.3013 117.337 19.984L118.065 21.006C117.719 21.342 117.281 21.6173 116.749 21.832C116.217 22.0373 115.689 22.14 115.167 22.14ZM115.041 15.812C113.781 15.812 113.029 16.3813 112.787 17.52H116.903V17.422C116.875 17.114 116.772 16.8387 116.595 16.596C116.417 16.3533 116.193 16.162 115.923 16.022C115.652 15.882 115.358 15.812 115.041 15.812Z"
      fill="#1D4ED8" />
  </symbol>
  <symbol viewBox="0 0 130 34" fill="none" id="deal">
    <rect width="130" height="34" rx="17" fill="#D1FAE5" />
    <path
      d="M28.7996 12.8H18.7996V12.4L27.5996 11.696V12.4H28.7996V11.2C28.7996 10.32 28.0868 9.70239 27.2164 9.82639L19.1836 10.9736C18.3124 11.0984 17.5996 11.92 17.5996 12.8V20.8C17.5996 21.2243 17.7682 21.6313 18.0682 21.9314C18.3683 22.2314 18.7753 22.4 19.1996 22.4H28.7996C29.224 22.4 29.6309 22.2314 29.931 21.9314C30.231 21.6313 30.3996 21.2243 30.3996 20.8V14.4C30.3996 13.9756 30.231 13.5687 29.931 13.2686C29.6309 12.9686 29.224 12.8 28.7996 12.8V12.8ZM27.5996 18.4048C27.442 18.4047 27.2859 18.3736 27.1403 18.3133C26.9946 18.2529 26.8623 18.1644 26.7509 18.0529C26.6395 17.9414 26.5511 17.8091 26.4908 17.6634C26.4306 17.5177 26.3996 17.3616 26.3996 17.204C26.3997 17.0464 26.4308 16.8903 26.4911 16.7446C26.5515 16.599 26.64 16.4667 26.7515 16.3553C26.863 16.2439 26.9953 16.1555 27.141 16.0952C27.2867 16.0349 27.4428 16.0039 27.6004 16.004C27.9188 16.0041 28.2241 16.1307 28.4491 16.3559C28.6741 16.5811 28.8005 16.8864 28.8004 17.2048C28.8003 17.5232 28.6737 17.8284 28.4485 18.0535C28.2233 18.2785 27.918 18.4049 27.5996 18.4048Z"
      fill="#047857" />
    <path
      d="M43.372 22V12.2H47.46C48.4027 12.2 49.1167 12.41 49.602 12.83C50.0967 13.25 50.344 13.8613 50.344 14.664C50.344 15.1213 50.2367 15.5227 50.022 15.868C49.8073 16.204 49.504 16.4607 49.112 16.638C49.644 16.834 50.0687 17.1467 50.386 17.576C50.7033 17.996 50.862 18.5093 50.862 19.116C50.862 20.0493 50.5727 20.7633 49.994 21.258C49.4247 21.7527 48.6267 22 47.6 22H43.372ZM44.884 16.26H47.376C47.796 16.26 48.1413 16.1387 48.412 15.896C48.692 15.6533 48.832 15.3407 48.832 14.958C48.832 14.538 48.692 14.216 48.412 13.992C48.132 13.768 47.7307 13.656 47.208 13.656H44.884V16.26ZM44.884 20.544H47.516C48.0853 20.544 48.5287 20.418 48.846 20.166C49.1633 19.914 49.322 19.5547 49.322 19.088C49.322 18.6493 49.1493 18.3133 48.804 18.08C48.468 17.8373 48.0153 17.716 47.446 17.716H44.884V20.544ZM55.9536 22.14C55.1976 22.14 54.5256 21.9813 53.9376 21.664C53.359 21.3373 52.9016 20.894 52.5656 20.334C52.239 19.774 52.0756 19.13 52.0756 18.402C52.0756 17.6273 52.2343 16.9507 52.5516 16.372C52.8783 15.784 53.3216 15.3267 53.8816 15C54.451 14.664 55.0996 14.4913 55.8276 14.482C56.4623 14.4913 57.0316 14.65 57.5356 14.958C58.049 15.266 58.4503 15.686 58.7396 16.218C59.0383 16.75 59.1783 17.3613 59.1596 18.052L59.1456 18.668H53.5176C53.6016 19.3307 53.8723 19.858 54.3296 20.25C54.7963 20.6327 55.3843 20.824 56.0936 20.824C56.4576 20.824 56.7936 20.7633 57.1016 20.642C57.419 20.5207 57.7596 20.3013 58.1236 19.984L58.8516 21.006C58.5063 21.342 58.0676 21.6173 57.5356 21.832C57.0036 22.0373 56.4763 22.14 55.9536 22.14ZM55.8276 15.812C54.5676 15.812 53.8163 16.3813 53.5736 17.52H57.6896V17.422C57.6616 17.114 57.559 16.8387 57.3816 16.596C57.2043 16.3533 56.9803 16.162 56.7096 16.022C56.439 15.882 56.145 15.812 55.8276 15.812ZM63.1768 22.14C62.5608 22.14 62.0054 22.0327 61.5108 21.818C61.0161 21.6033 60.6054 21.286 60.2788 20.866L61.2588 20.026C61.5388 20.3527 61.8421 20.5907 62.1688 20.74C62.5048 20.88 62.8828 20.95 63.3028 20.95C63.6481 20.95 63.9281 20.866 64.1428 20.698C64.3668 20.53 64.4788 20.3013 64.4788 20.012C64.4788 19.7693 64.3901 19.5733 64.2128 19.424C64.0354 19.284 63.6294 19.13 62.9948 18.962C62.4534 18.822 62.0101 18.6633 61.6648 18.486C61.3194 18.3087 61.0534 18.108 60.8668 17.884C60.5961 17.548 60.4608 17.1233 60.4608 16.61C60.4608 16.1993 60.5774 15.8353 60.8108 15.518C61.0441 15.2007 61.3568 14.9533 61.7488 14.776C62.1501 14.5893 62.5981 14.496 63.0928 14.496C63.6154 14.496 64.1194 14.6033 64.6048 14.818C65.0994 15.0233 65.4961 15.308 65.7948 15.672L64.9688 16.582C64.6981 16.3113 64.3948 16.0967 64.0588 15.938C63.7321 15.77 63.4334 15.686 63.1628 15.686C62.7614 15.686 62.4488 15.7607 62.2248 15.91C62.0101 16.0593 61.9028 16.2787 61.9028 16.568C61.9121 16.82 62.0148 17.0253 62.2108 17.184C62.4068 17.3427 62.8221 17.5013 63.4568 17.66C63.9234 17.7813 64.3061 17.9167 64.6048 18.066C64.9128 18.206 65.1554 18.3693 65.3328 18.556C65.5194 18.7333 65.6501 18.9387 65.7248 19.172C65.7994 19.4053 65.8368 19.6667 65.8368 19.956C65.8368 20.376 65.7154 20.754 65.4728 21.09C65.2394 21.4167 64.9221 21.6733 64.5208 21.86C64.1194 22.0467 63.6714 22.14 63.1768 22.14ZM68.336 22V16.05H66.81V14.65H68.336V12.774H69.778V14.65H71.486V16.05H69.778V22H68.336ZM77.0868 22V12.2H80.9228C81.8562 12.2 82.6635 12.4053 83.3448 12.816C84.0355 13.2267 84.5675 13.8007 84.9408 14.538C85.3235 15.2753 85.5148 16.1293 85.5148 17.1C85.5148 18.08 85.3282 18.9387 84.9548 19.676C84.5815 20.404 84.0495 20.9733 83.3588 21.384C82.6775 21.7947 81.8655 22 80.9228 22H77.0868ZM80.8528 13.656H78.5988V20.544H80.8528C81.8422 20.544 82.6075 20.2407 83.1488 19.634C83.6995 19.018 83.9748 18.1733 83.9748 17.1C83.9748 16.036 83.6995 15.196 83.1488 14.58C82.5982 13.964 81.8328 13.656 80.8528 13.656ZM90.6255 22.14C89.8695 22.14 89.1975 21.9813 88.6095 21.664C88.0308 21.3373 87.5735 20.894 87.2375 20.334C86.9108 19.774 86.7475 19.13 86.7475 18.402C86.7475 17.6273 86.9062 16.9507 87.2235 16.372C87.5502 15.784 87.9935 15.3267 88.5535 15C89.1228 14.664 89.7715 14.4913 90.4995 14.482C91.1342 14.4913 91.7035 14.65 92.2075 14.958C92.7208 15.266 93.1222 15.686 93.4115 16.218C93.7102 16.75 93.8502 17.3613 93.8315 18.052L93.8175 18.668H88.1895C88.2735 19.3307 88.5442 19.858 89.0015 20.25C89.4682 20.6327 90.0562 20.824 90.7655 20.824C91.1295 20.824 91.4655 20.7633 91.7735 20.642C92.0908 20.5207 92.4315 20.3013 92.7955 19.984L93.5235 21.006C93.1782 21.342 92.7395 21.6173 92.2075 21.832C91.6755 22.0373 91.1482 22.14 90.6255 22.14ZM90.4995 15.812C89.2395 15.812 88.4882 16.3813 88.2455 17.52H92.3615V17.422C92.3335 17.114 92.2308 16.8387 92.0535 16.596C91.8762 16.3533 91.6522 16.162 91.3815 16.022C91.1108 15.882 90.8168 15.812 90.4995 15.812ZM98.2266 22.14C97.62 22.14 97.0646 21.972 96.5606 21.636C96.066 21.3 95.6693 20.8427 95.3706 20.264C95.072 19.6853 94.9226 19.032 94.9226 18.304C94.9226 17.5667 95.072 16.9133 95.3706 16.344C95.6786 15.7653 96.0893 15.3127 96.6026 14.986C97.1253 14.6593 97.7086 14.496 98.3526 14.496C98.9033 14.496 99.3886 14.6173 99.8086 14.86C100.238 15.0933 100.565 15.3967 100.789 15.77V14.65H102.245V22H100.789V20.866C100.537 21.2207 100.177 21.524 99.7106 21.776C99.2533 22.0187 98.7586 22.14 98.2266 22.14ZM98.6046 20.81C99.0433 20.81 99.4306 20.7027 99.7666 20.488C100.103 20.2733 100.364 19.9793 100.551 19.606C100.747 19.2233 100.845 18.7893 100.845 18.304C100.845 17.828 100.747 17.4033 100.551 17.03C100.364 16.6567 100.103 16.3627 99.7666 16.148C99.4306 15.9333 99.0433 15.826 98.6046 15.826C98.1753 15.826 97.7926 15.9333 97.4566 16.148C97.13 16.3627 96.8686 16.6567 96.6726 17.03C96.486 17.4033 96.3926 17.828 96.3926 18.304C96.3926 18.7893 96.486 19.2233 96.6726 19.606C96.8686 19.9793 97.13 20.2733 97.4566 20.488C97.7926 20.7027 98.1753 20.81 98.6046 20.81ZM104.286 22V11.64H105.728V22H104.286ZM110.222 22.14C109.606 22.14 109.05 22.0327 108.556 21.818C108.061 21.6033 107.65 21.286 107.324 20.866L108.304 20.026C108.584 20.3527 108.887 20.5907 109.214 20.74C109.55 20.88 109.928 20.95 110.348 20.95C110.693 20.95 110.973 20.866 111.188 20.698C111.412 20.53 111.524 20.3013 111.524 20.012C111.524 19.7693 111.435 19.5733 111.258 19.424C111.08 19.284 110.674 19.13 110.04 18.962C109.498 18.822 109.055 18.6633 108.71 18.486C108.364 18.3087 108.098 18.108 107.912 17.884C107.641 17.548 107.506 17.1233 107.506 16.61C107.506 16.1993 107.622 15.8353 107.856 15.518C108.089 15.2007 108.402 14.9533 108.794 14.776C109.195 14.5893 109.643 14.496 110.138 14.496C110.66 14.496 111.164 14.6033 111.65 14.818C112.144 15.0233 112.541 15.308 112.84 15.672L112.014 16.582C111.743 16.3113 111.44 16.0967 111.104 15.938C110.777 15.77 110.478 15.686 110.208 15.686C109.806 15.686 109.494 15.7607 109.27 15.91C109.055 16.0593 108.948 16.2787 108.948 16.568C108.957 16.82 109.06 17.0253 109.256 17.184C109.452 17.3427 109.867 17.5013 110.502 17.66C110.968 17.7813 111.351 17.9167 111.65 18.066C111.958 18.206 112.2 18.3693 112.378 18.556C112.564 18.7333 112.695 18.9387 112.77 19.172C112.844 19.4053 112.882 19.6667 112.882 19.956C112.882 20.376 112.76 20.754 112.518 21.09C112.284 21.4167 111.967 21.6733 111.566 21.86C111.164 22.0467 110.716 22.14 110.222 22.14Z"
      fill="#047857" />
  </symbol>

  <symbol viewBox="0 0 24 16" fill="none" id="bed">
    <path
      d="M19.8 6.76923C22.0713 6.76923 24 8.66184 24 11.0769V14.7692H22.2V16H21V14.7692H3V16H1.8V14.7692H0V11.0769C0 8.74741 1.86341 6.76923 4.2 6.76923H19.8ZM18.6 0C20.2133 0 21.6004 1.33021 21.6 3.07692L21.6004 6.01703C21.0548 5.71017 20.4443 5.53846 19.8 5.53846L18.6 5.53784C18.6 4.48392 17.7586 3.69231 16.8 3.69231H13.2C12.739 3.69231 12.3185 3.87004 12.0001 4.16234C11.682 3.87026 11.2613 3.69231 10.8 3.69231H7.2C6.20609 3.69231 5.40033 4.51853 5.4 5.53784L4.2 5.53846C3.55587 5.53846 2.9456 5.71006 2.4 6.01675V3.07692C2.4 1.4223 3.69394 0 5.4 0H18.6ZM10.8 4.92277C11.1256 4.92277 11.4 5.23046 11.4 5.53846L6.6 5.53784C6.6 5.16134 6.8923 4.92308 7.2 4.92308L10.8 4.92277ZM16.8 4.92722C17.1395 4.92277 17.3997 5.22253 17.4 5.53784H12.6C12.6 5.15596 12.8923 4.92308 13.2 4.92308L16.8 4.92722Z"
      fill="#888B97" />
  </symbol>
  <symbol viewBox="0 0 24 24" fill="none" id="carport">
    <path
      d="M23.3837 6.62857L13.357 0.379291C12.5309 -0.130832 11.4664 -0.125616 10.6453 0.390245L0.608102 6.63378C-0.0151537 7.0255 -0.187369 7.82511 0.222668 8.41974C0.633251 9.01436 1.47082 9.17918 2.09462 8.78694L12.0104 2.61852L21.9142 8.79216C22.1416 8.93247 22.3958 8.99871 22.6473 8.99871C23.0912 8.99871 23.5242 8.79164 23.7828 8.41087C24.1885 7.81312 24.0092 7.01611 23.3837 6.62857Z"
      fill="#888B97" />
    <path
      d="M20.2106 14.7531C20.134 14.3031 19.7524 13.9702 19.3074 13.9702H18.796L18.6017 11.8962C18.3941 9.67813 16.5984 8 14.4247 8H9.57604C7.40184 8 5.60666 9.67865 5.39863 11.8962L5.2048 13.9702H4.69283C4.24734 13.9702 3.86628 14.3031 3.78865 14.7531L3.02755 19.1768C2.93317 19.7251 3.08438 20.2895 3.43347 20.715C3.76937 21.1249 4.26408 21.3694 4.78163 21.3876V22.1221C4.78163 23.162 5.59448 24 6.60979 24H7.18721C8.2015 24 9.02653 23.162 9.02653 22.1221V21.3996H14.9793V22.1206C14.9793 23.1609 15.7978 24 16.8121 24H17.39C18.4043 24 19.2237 23.1609 19.2237 22.1206V21.3876C19.7413 21.3694 20.2329 21.127 20.5678 20.7176C20.9169 20.291 21.0661 19.7298 20.9727 19.1804L20.2106 14.7531ZM6.39059 19.6933C5.53461 19.6933 4.84049 18.9822 4.84049 18.1036C4.84049 17.225 5.53461 16.5134 6.39059 16.5134C7.24708 16.5134 7.94171 17.2245 7.94171 18.1036C7.94171 18.9822 7.24708 19.6933 6.39059 19.6933ZM6.77723 13.9702L6.95634 12.057C7.08674 10.666 8.21266 9.61831 9.57604 9.61831H9.85562V10.2197C9.85562 10.7414 10.26 11.157 10.7684 11.157H13.2324C13.7408 11.157 14.1523 10.7414 14.1523 10.2197V9.61883H14.4247C15.7881 9.61883 16.914 10.6665 17.0439 12.0575L17.2236 13.9707L6.77723 13.9702ZM17.6082 19.6933C16.7522 19.6933 16.0581 18.9822 16.0581 18.1036C16.0581 17.225 16.7522 16.5134 17.6082 16.5134C18.4647 16.5134 19.1593 17.2245 19.1593 18.1036C19.1593 18.9822 18.4647 19.6933 17.6082 19.6933Z"
      fill="#888B97" />
  </symbol>
  <symbol viewBox="0 0 25 24" fill="none" id="shower">
    <path
      d="M23.0389 11.9553H1.96067C1.13057 11.9553 0.455078 12.6308 0.455078 13.4609C0.455078 14.291 1.13057 14.9665 1.96067 14.9665H23.0389C23.869 14.9665 24.5445 14.291 24.5445 13.4609C24.5445 12.6308 23.869 11.9553 23.0389 11.9553Z"
      fill="#888B97" />
    <path
      d="M23.1773 13.9819C22.9053 13.9056 22.6323 14.0602 22.557 14.3272L22.5179 14.4647H2.48252L2.44239 14.3272C2.36711 14.0602 2.0921 13.9076 1.82209 13.9819C1.55508 14.0581 1.40151 14.3362 1.47783 14.6022L2.86094 19.4441C3.28951 20.9447 4.6787 21.9926 6.23848 21.9926H18.7599C20.3207 21.9926 21.7089 20.9447 22.1375 19.4441L23.5206 14.6022C23.5979 14.3362 23.4433 14.0581 23.1773 13.9819ZM6.23947 19.9851C5.57099 19.9851 4.97478 19.5364 4.79209 18.893L4.14069 16.6106C4.06442 16.3436 4.21898 16.0665 4.48495 15.9903C4.75393 15.914 5.02997 16.0695 5.10525 16.3356L5.75665 18.618C5.81889 18.8318 6.0166 18.9824 6.23942 18.9824C6.51645 18.9824 6.7413 19.2072 6.7413 19.4843C6.74135 19.7613 6.5165 19.9851 6.23947 19.9851Z"
      fill="#888B97" />
    <path
      d="M7.20317 21.041C6.95527 20.9196 6.65514 21.017 6.52966 21.2659L5.52595 23.2733C5.40249 23.5212 5.50285 23.8224 5.7508 23.9469C5.82405 23.983 5.90037 24.0001 5.97565 24.0001C6.15933 24.0001 6.336 23.8987 6.42431 23.7221L7.42802 21.7146C7.55148 21.4666 7.45108 21.1655 7.20317 21.041Z"
      fill="#888B97" />
    <path
      d="M19.4737 23.2743L18.47 21.2668C18.3456 21.0179 18.0444 20.9185 17.7965 21.042C17.5486 21.1664 17.4482 21.4676 17.5716 21.7155L18.5753 23.723C18.6637 23.8986 18.8403 24 19.024 24C19.0993 24 19.1756 23.9829 19.2489 23.9478C19.4968 23.8233 19.5972 23.5222 19.4737 23.2743Z"
      fill="#888B97" />
    <path
      d="M20.6148 0C20.1029 0 19.6211 0.199725 19.2588 0.5621L17.6659 2.15501C17.4702 2.35073 17.4702 2.66893 17.6659 2.86465C17.8616 3.06038 18.1798 3.06038 18.3755 2.86465L19.9684 1.27274C20.14 1.10011 20.3699 1.00474 20.6198 1.00474C21.1236 1.00474 21.5332 1.41426 21.5332 1.91811V12.4572C21.5332 12.7342 21.758 12.9591 22.035 12.9591C22.3121 12.9591 22.5369 12.7342 22.5379 12.4562V1.91713C22.5379 0.860206 21.6787 0 20.6148 0Z"
      fill="#888B97" />
    <path
      d="M18.8774 2.65687L17.8737 1.65317C17.7592 1.53874 17.5996 1.48553 17.437 1.51263L14.9277 1.92417C14.7431 1.95428 14.5915 2.08475 14.5323 2.26142C14.4731 2.43809 14.5182 2.63481 14.6487 2.76829L17.6599 5.86979C17.7553 5.96916 17.8867 6.02237 18.0192 6.02237C18.0664 6.02237 18.1146 6.01536 18.1617 6.00129C18.3404 5.94911 18.4759 5.80157 18.512 5.61887L19.0139 3.10958C19.047 2.94594 18.9958 2.77628 18.8774 2.65687Z"
      fill="#888B97" />
    <path
      d="M12.3521 6.08057C12.1564 5.88485 11.8382 5.88485 11.6425 6.08057L10.6388 7.08428C10.4431 7.28001 10.4431 7.5982 10.6388 7.79393C10.7372 7.89127 10.8656 7.94049 10.9941 7.94049C11.1226 7.94049 11.251 7.89132 11.3484 7.79393L12.3521 6.79022C12.5479 6.59445 12.5479 6.2763 12.3521 6.08057Z"
      fill="#888B97" />
    <path
      d="M14.3597 8.08796C14.164 7.89223 13.8458 7.89223 13.6501 8.08796L12.6464 9.09166C12.4506 9.28739 12.4506 9.60559 12.6464 9.80131C12.7447 9.89866 12.8732 9.94787 13.0017 9.94787C13.1302 9.94787 13.2586 9.89871 13.356 9.80131L14.3597 8.79761C14.5554 8.60188 14.5554 8.28368 14.3597 8.08796Z"
      fill="#888B97" />
    <path
      d="M15.3634 5.07679C15.1676 4.88106 14.8494 4.88106 14.6537 5.07679L13.65 6.0805C13.4543 6.27622 13.4543 6.59442 13.65 6.79014C13.7484 6.88749 13.8768 6.9367 14.0053 6.9367C14.1338 6.9367 14.2623 6.88754 14.3597 6.79014L15.3634 5.78644C15.5591 5.59071 15.5591 5.27251 15.3634 5.07679Z"
      fill="#888B97" />
  </symbol>
  <symbol viewBox="0 0 24 22" fill="none" id="stairs">
    <path
      d="M22.7884 4H18.4324C17.7631 4 17.2207 4.53666 17.2207 5.19956V8.31351H14.0759C13.4064 8.31351 12.8641 8.84997 12.8641 9.51292V12.6271H9.71919C9.0497 12.6271 8.50752 13.1643 8.50752 13.8265V17.0907H5.21171C4.89012 17.0907 4.58195 17.2169 4.35482 17.4416C4.1275 17.6664 4 17.973 4 18.2901L4.00039 20.7999C4.00039 21.4634 4.54297 22 5.21206 22H22.7884C23.4579 22 24 21.4634 24 20.7999V5.19951C24.0001 4.53666 23.4579 4 22.7884 4Z"
      fill="#888B97" />
    <path
      d="M16.764 0.245303C16.4425 -0.0761127 15.9158 -0.0822899 15.5863 0.230429C10.2431 5.30548 5.15982 10.2624 0.244094 15.0549C0.0876831 15.2074 0 15.4146 0 15.6296V21.1877C0 21.6356 0.37278 22 0.832939 22C1.29264 22 1.66608 21.6357 1.66608 21.1877V15.9657C6.50203 11.2503 11.5017 6.37796 16.7485 1.39368C17.0778 1.08102 17.0845 0.566522 16.764 0.245303Z"
      fill="#888B97" />
  </symbol>
  <symbol viewBox="0 0 16 20" fill="none" id="call">
    <path
      d="M4.38443 0.479185C4.90952 0.320866 5.47301 0.347168 5.98107 0.553714C6.48914 0.760259 6.91114 1.13459 7.17683 1.61439L7.26683 1.79319L8.06003 3.55839C8.30112 4.09417 8.37937 4.689 8.28507 5.26891C8.19077 5.84882 7.92806 6.3882 7.52962 6.81999L7.37122 6.97839L6.11843 8.14599C5.89283 8.35959 6.06203 9.18639 6.87923 10.6C7.61243 11.872 8.21123 12.466 8.50403 12.4984H8.55562L8.61922 12.4864L11.0792 11.734C11.4098 11.6326 11.7627 11.6286 12.0955 11.7224C12.4283 11.8163 12.7271 12.004 12.956 12.2632L13.0664 12.4012L14.6936 14.6572C15.0129 15.0992 15.1722 15.6369 15.1451 16.1815C15.1181 16.7261 14.9064 17.2453 14.5448 17.6536L14.3984 17.8048L13.7468 18.4216C13.1628 18.9747 12.4322 19.3485 11.6419 19.4984C10.8516 19.6484 10.0349 19.5683 9.28883 19.2676C6.96683 18.3316 4.85723 16.1932 2.94083 12.874C1.02083 9.54639 0.222826 6.64599 0.579226 4.16199C0.687179 3.41097 0.996558 2.70322 1.47449 2.11394C1.95243 1.52465 2.58107 1.07584 3.29363 0.815185L3.52523 0.738385L4.38443 0.479185Z"
      fill="white" />
  </symbol>
  <symbol viewBox="0 0 28 28" fill="none" id="star">
    <path
      d="M25.6055 10.7088C25.5322 10.4929 25.3972 10.3031 25.2172 10.1629C25.0373 10.0228 24.8202 9.93838 24.5929 9.92018L17.9417 9.39168L15.0635 3.02052C14.9719 2.81531 14.8228 2.64103 14.6342 2.51868C14.4457 2.39634 14.2258 2.33118 14.0011 2.33105C13.7763 2.33093 13.5563 2.39585 13.3677 2.51799C13.179 2.64012 13.0297 2.81425 12.9378 3.01935L10.0597 9.39168L3.40852 9.92018C3.18505 9.93789 2.97141 10.0196 2.79316 10.1555C2.61492 10.2915 2.47961 10.4759 2.40342 10.6867C2.32724 10.8975 2.31341 11.1259 2.36358 11.3443C2.41376 11.5628 2.52582 11.7622 2.68635 11.9187L7.60152 16.7102L5.86318 24.2375C5.8104 24.4654 5.82732 24.7038 5.91174 24.9219C5.99616 25.14 6.14419 25.3278 6.33662 25.4607C6.52905 25.5936 6.75699 25.6657 6.99086 25.6674C7.22474 25.6692 7.45375 25.6007 7.64818 25.4707L14.0007 21.2357L20.3532 25.4707C20.5519 25.6026 20.7863 25.6706 21.0248 25.6653C21.2632 25.6601 21.4944 25.582 21.6871 25.4414C21.8799 25.3009 22.025 25.1047 22.1029 24.8793C22.1808 24.6538 22.1879 24.4099 22.123 24.1804L19.9892 16.7137L25.2812 11.9514C25.6277 11.6387 25.7549 11.151 25.6055 10.7088V10.7088Z"
      fill="#F59E0B" />
  </symbol>
  <symbol viewBox="0 0 20 20" fill="none" id="clock">
    <path
      d="M9.99 0C4.47 0 0 4.48 0 10C0 15.52 4.47 20 9.99 20C15.52 20 20 15.52 20 10C20 4.48 15.52 0 9.99 0ZM14 14C13.9075 14.0927 13.7976 14.1663 13.6766 14.2164C13.5557 14.2666 13.426 14.2924 13.295 14.2924C13.164 14.2924 13.0343 14.2666 12.9134 14.2164C12.7924 14.1663 12.6825 14.0927 12.59 14L9.3 10.71C9.20551 10.6174 9.13034 10.5069 9.07885 10.3851C9.02735 10.2632 9.00055 10.1323 9 10V6C9 5.45 9.45 5 10 5C10.55 5 11 5.45 11 6V9.59L14 12.59C14.39 12.98 14.39 13.61 14 14Z"
      fill="#888B97" />
  </symbol>
  <symbol viewBox="0 0 20 16" fill="none" id="mail">
    <path
      d="M17 0H3C2.20435 0 1.44129 0.316071 0.87868 0.87868C0.316071 1.44129 0 2.20435 0 3V13C0 13.7956 0.316071 14.5587 0.87868 15.1213C1.44129 15.6839 2.20435 16 3 16H17C17.7956 16 18.5587 15.6839 19.1213 15.1213C19.6839 14.5587 20 13.7956 20 13V3C20 2.20435 19.6839 1.44129 19.1213 0.87868C18.5587 0.316071 17.7956 0 17 0ZM17 2L10.5 6.47C10.348 6.55777 10.1755 6.60397 10 6.60397C9.82446 6.60397 9.65202 6.55777 9.5 6.47L3 2H17Z"
      fill="#3B82F6" />
  </symbol>
  <symbol viewBox="0 0 13 20" fill="none" id="facebook">
    <path
      d="M3.3186 20V10.6154H0V7.23652H3.3186V4.3505C3.3186 2.08264 5.27891 0 9.79588 0C11.6247 0 12.9771 0.1311 12.9771 0.1311L12.8705 3.28642C12.8705 3.28642 11.4913 3.27638 9.98632 3.27638C8.35743 3.27638 8.09646 3.83768 8.09646 4.7693V7.23652H13L12.7866 10.6154H8.09646V20H3.3186Z"
      fill="#3C4563" />
  </symbol>
  <symbol viewBox="0 0 24 20" fill="none" id="twitter">
    <path
      d="M24 2.37575C23.1174 2.76628 22.157 3.04735 21.1676 3.15682C22.1948 2.53089 22.9639 1.54202 23.3308 0.375752C22.367 0.963885 21.3111 1.37629 20.2101 1.59469C19.7499 1.09003 19.1933 0.687999 18.575 0.413643C17.9567 0.139287 17.2899 -0.00151415 16.6163 1.22793e-05C13.8906 1.22793e-05 11.6986 2.26628 11.6986 5.04735C11.6986 5.43788 11.7447 5.82841 11.8197 6.20415C7.73849 5.98522 4.09855 3.98522 1.67864 0.923089C1.23771 1.69562 1.00665 2.57524 1.00949 3.47042C1.00949 5.2219 1.87766 6.76628 3.20154 7.67456C2.42136 7.64305 1.65944 7.42308 0.977767 7.03255V7.09468C0.977767 9.54734 2.66795 11.5799 4.92056 12.0473C4.49761 12.16 4.06251 12.2177 3.62553 12.2189C3.30537 12.2189 3.00252 12.1864 2.69679 12.142C3.31979 14.142 5.134 15.5947 7.29432 15.642C5.60413 17 3.48708 17.7988 1.18832 17.7988C0.775868 17.7988 0.395145 17.784 0 17.7367C2.18051 19.1716 4.7677 20 7.5539 20C16.599 20 21.5484 12.3136 21.5484 5.64202C21.5484 5.42309 21.5484 5.20415 21.534 4.98522C22.4915 4.26628 23.3308 3.37575 24 2.37575Z"
      fill="#3C4563" />
  </symbol>

  <symbol viewBox="0 0 20 20" fill="none" id="instagram">
    <path
      d="M9.99731 6.66525C8.16111 6.66525 6.66262 8.16376 6.66262 10C6.66262 11.8362 8.16111 13.3348 9.99731 13.3348C11.8335 13.3348 13.332 11.8362 13.332 10C13.332 8.16376 11.8335 6.66525 9.99731 6.66525ZM19.9989 10C19.9989 8.61907 20.0114 7.25064 19.9338 5.87221C19.8563 4.27113 19.4911 2.85017 18.3203 1.67938C17.147 0.506085 15.7286 0.14334 14.1275 0.065788C12.7466 -0.0117644 11.3782 0.000744113 9.99981 0.000744113C8.61891 0.000744113 7.25051 -0.0117644 5.8721 0.065788C4.27105 0.14334 2.85012 0.508587 1.67935 1.67938C0.506076 2.85267 0.143338 4.27113 0.0657868 5.87221C-0.0117642 7.25314 0.000744099 8.62157 0.000744099 10C0.000744099 11.3784 -0.0117642 12.7494 0.0657868 14.1278C0.143338 15.7289 0.508578 17.1498 1.67935 18.3206C2.85262 19.4939 4.27105 19.8567 5.8721 19.9342C7.25301 20.0118 8.62141 19.9993 9.99981 19.9993C11.3807 19.9993 12.7491 20.0118 14.1275 19.9342C15.7286 19.8567 17.1495 19.4914 18.3203 18.3206C19.4936 17.1473 19.8563 15.7289 19.9338 14.1278C20.0139 12.7494 19.9989 11.3809 19.9989 10ZM9.99731 15.131C7.15795 15.131 4.86644 12.8394 4.86644 10C4.86644 7.16058 7.15795 4.86903 9.99731 4.86903C12.8367 4.86903 15.1282 7.16058 15.1282 10C15.1282 12.8394 12.8367 15.131 9.99731 15.131ZM15.3383 5.8572C14.6754 5.8572 14.14 5.32184 14.14 4.65889C14.14 3.99594 14.6754 3.46058 15.3383 3.46058C16.0013 3.46058 16.5366 3.99594 16.5366 4.65889C16.5368 4.81631 16.5059 4.97222 16.4458 5.1177C16.3856 5.26317 16.2974 5.39535 16.1861 5.50666C16.0748 5.61798 15.9426 5.70624 15.7971 5.76639C15.6516 5.82654 15.4957 5.8574 15.3383 5.8572Z"
      fill="#3C4563" />
  </symbol>


</svg>